<?xml version="1.0" encoding="iso-8859-1"?>
<!-- Uploaded to: SVG Repo, www.svgrepo.com, Generator: SVG Repo Mixer Tools -->
<svg height="800px" width="800px" version="1.1" id="Layer_1" xmlns="http://www.w3.org/2000/svg" xmlns:xlink="http://www.w3.org/1999/xlink" 
	 viewBox="0 0 488 488" xml:space="preserve">
<circle style="fill:#BFD5D8;" cx="244" cy="244" r="228.8"/>
<path style="fill:#B0CCD1;" d="M82.4,82.4C172-6.4,316-6.4,405.6,82.4c88.8,89.6,88.8,233.6,0,323.2"/>
<path style="fill:#CFE6E8;" d="M450.4,341.6l-136-80l-53.6,53.6l80,136C389.6,428,428,389.6,450.4,341.6z"/>
<path style="fill:#BAD6D8;" d="M315.2,261.6L288,288.8l117.6,117.6c4.8-4.8,8.8-8.8,12.8-14.4l0.8-0.8c4-4.8,8-9.6,12-15.2
	c0,0,0,0,0-0.8c7.2-10.4,14.4-21.6,20-33.6L315.2,261.6z"/>
<path style="fill:#CFE6E8;" d="M37.6,146.4l136,80l53.6-53.6l-80-136C98.4,60,60,98.4,37.6,146.4z"/>
<path style="fill:#BAD6D8;" d="M200,200l27.2-27.2l-80-136c-12,5.6-23.2,12-33.6,20c0,0,0,0-0.8,0c-4.8,4-10.4,7.2-15.2,12l-0.8,0.8
	c-4.8,4-9.6,8.8-14.4,12.8L200,200z"/>
<path style="fill:#9BB6BC;" d="M244,488C109.6,488,0,378.4,0,244S109.6,0,244,0s244,109.6,244,244S378.4,488,244,488z M244,31.2
	C126.4,31.2,31.2,126.4,31.2,244S126.4,456.8,244,456.8S456.8,361.6,456.8,244S361.6,31.2,244,31.2z"/>
<circle style="fill:#424849;" cx="244" cy="244" r="89.6"/>
<path style="fill:#9BB6BC;" d="M244,341.6c-53.6,0-97.6-44-97.6-97.6s44-97.6,97.6-97.6s97.6,44,97.6,97.6S297.6,341.6,244,341.6z
	 M244,162.4c-44.8,0-81.6,36.8-81.6,81.6s36.8,81.6,81.6,81.6s81.6-36.8,81.6-81.6S288.8,162.4,244,162.4z"/>
<circle style="fill:#C5DADD;" cx="244" cy="244" r="30.4"/>
<path style="fill:#B0CCD1;" d="M222.4,222.4c12-12,31.2-12,43.2,0s12,31.2,0,43.2"/>
</svg>